# xmcd
#
# Track frame offsets: 
#        150
#        22553
#        46063
#        67563
#        88308
#        109933
#        128963
#        150220
#        172390
#        194033
#        219413
#        224567
#
# Disc length: 3296 seconds
#
# Revision: 40
# Processed by: cddbd v1.5.2PL0 Copyright (c) Steve Scherf et al.
# Submitted via: ExactAudioCopy v1.1
#
DISCID=a40cde0c
DTITLE=宇多田ヒカル - DEEP RIVER
DYEAR=2002
DGENRE=J-Pop
TTITLE0=SAKURAドロップス
TTITLE1=traveling
TTITLE2=幸せになろう
TTITLE3=Deep River
TTITLE4=Letters
TTITLE5=プレイ・ボール
TTITLE6=東京NIGHTS
TTITLE7=A.S.A.P.
TTITLE8=嘘みたいな I Love You
TTITLE9=FINAL DISTANCE
TTITLE10=Bridge (Interlude)
TTITLE11=光
EXTD=YEAR: 2002
EXTT0=
EXTT1=
EXTT2=
EXTT3=
EXTT4=
EXTT5=
EXTT6=
EXTT7=
EXTT8=
EXTT9=
EXTT10=
EXTT11=
PLAYORDER=
